# xmcd
#
# Track frame offsets: 
#        150
#        12720
#        24117
#        35295
#        49962
#        61455
#        73133
#        86511
#        97072
#        110867
#        122802
#        139029
#        153174
#        161235
#        177443
#        193091
#        203423
#        216470
#        230571
#        254138
#        270846
#        293641
#        309494
#        323360
#
# Disc length: 4503 seconds
#
# Revision: 0
# Processed by: cddbd v1.5.2PL0 Copyright (c) Steve Scherf et al.
# Submitted via: ExactAudioCopy v0.99pb5
#
DISCID=62119518
DTITLE=Various Artist - The Blues Box [CD 4 of 7)
DYEAR=2009
DGENRE=Blues
TTITLE0=Big Joe Williams - Shake Them Down
TTITLE1=Big Joe Williams - Saturday Night Jump
TTITLE2=Big Joe Williams - Jinx Blues
TTITLE3=Big Joe Williams - Pick A Pickle
TTITLE4=Big Joe Williams - Ramblin' And Wanderin' Blues
TTITLE5=Big Joe Williams - Old Saw Mill Blues
TTITLE6=Big Joe Williams - Don't The Apples Look Mellow
TTITLE7=Big Joe Williams - El Paso Blues
TTITLE8=Big Joe Williams - Juanita Blues
TTITLE9=Big Joe Williams - Vitamin 'A' Blues
TTITLE10=Sleepy John Estes - Drop Down Moma
TTITLE11=Sleepy John Estes - I'd Been Well Warned
TTITLE12=Sleepy John Estes - Stop That Thing
TTITLE13=Sleepy John Estes - Diving Duck Blues
TTITLE14=Sleepy John Estes - Vernita Blues
TTITLE15=Sleepy John Estes - Bottle Up And Go
TTITLE16=Sleepy John Estes - Mountain Cat Blues
TTITLE17=Robert Pete Williams - Doctor Blues
TTITLE18=Robert Pete Williams - Got On His Mind
TTITLE19=Robert Pete Williams - Meet Him Over In Paradise
TTITLE20=Robert Pete Williams - Goodbye Baby
TTITLE21=Robert Pete Williams - It's Gotta Be Jelly 'Cause Jam Don't S
TTITLE21=hake Thataway
TTITLE22=Robert Pete Williams - She Walked Around With Her Mouth Poked
TTITLE23=Robert Pete Williams - Greyhound Blues
EXTD=
EXTT0=
EXTT1=
EXTT2=
EXTT3=
EXTT4=
EXTT5=
EXTT6=
EXTT7=
EXTT8=
EXTT9=
EXTT10=
EXTT11=
EXTT12=
EXTT13=
EXTT14=
EXTT15=
EXTT16=
EXTT17=
EXTT18=
EXTT19=
EXTT20=
EXTT21=
EXTT22=
EXTT23=
PLAYORDER=
